@startuml
entity Artist {
    * id : VARCHAR
    --
    * name : VARCHAR
    instagram : VARCHAR
    facebook : VARCHAR
    twitter : VARCHAR
    wikipedia : VARCHAR
    bio : TEXT
}

entity Album {
    * id : VARCHAR
    --
    * title : VARCHAR
    * release : YEAR
    * image : VARCHAR
}

entity Song {
    * id : VARCHAR
    --
    * album_id : VARCHAR
    * title : VARCHAR
    * duration : INT
}

entity PlaylistCategory {
    * id : VARCHAR
    --
    * name : VARCHAR
    * image : VARCHAR
    * icon : VARCHAR
}
entity Playlist{
    * id : VARCHAR
    --
    * name : VARCHAR
    description : TEXT
    image : VARCHAR
    category_id : VARCHAR
    * user_id : VARCHAR
}

entity PodcastCategory {
    * id : VARCHAR
    --
    * name : VARCHAR
    * image : VARCHAR
    * icon : VARCHAR
}

 entity Podcast {
    * id : VARCHAR
    --
    * name : VARCHAR
    about : TEXT
    image : VARCHAR
    category_id : VARCHAR
    * user_id : VARCHAR
}

entity Episode {
    * id : VARCHAR
    --
    * podcast_id : VARCHAR
    * title : VARCHAR
    description : TEXT
    published_at : DATE
    duration : INT
}

entity User{
    * id : VARCHAR
    --
    * email : VARCHAR
    * name : VARCHAR
    birthday : DATE
}

entity Concert{
    * id : VARCHAR
    --
    * event_at : DATETIME
    * url : VARCHAR
    * location : VARCHAR
    lon : DOUBLE
    lat : DOUBLE
}
'relasi
Artist }|--|{ Album : Has
'menentukan relasi Song
Album ||--|{ Song : Contains
Artist }|--|{ Song : Sing
'menentukan relasi playlist
PlaylistCategory |o--|{ Playlist : Contains
User ||--o{ Playlist : Create
Playlist }o--o{ Song : Contains
'relasi podcast
'misal 1 category punya 1 podcast
PodcastCategory ||--|{ Podcast : Contains
User ||--o{ Podcast : Create
'relasi episode hanya ke podcast
Podcast ||--o{ Episode : Contains
'relasi concert
Artist }|--o{ Concert : Perform
'relasi follow artist
User }o--o{ Artist : Follow
'relasi like song
User  }o--o{ Song : Liked Song
'relasi follow playlist
User }o--o{ Playlist : Follow
@enduml